<svg xmlns="http://www.w3.org/2000/svg" version="1.1" xmlns:xlink="http://www.w3.org/1999/xlink" xmlns:svgjs="http://svgjs.dev/svgjs" width="1500" height="1500" viewBox="0 0 1500 1500"><rect width="1500" height="1500" fill="#755bb4"></rect><g transform="matrix(0.6666666666666666,0,0,0.6666666666666666,249.85778443113782,249.85778443113765)"><svg viewBox="0 0 334 334" data-background-color="#755bb4" preserveAspectRatio="xMidYMid meet" height="1500" width="1500" xmlns="http://www.w3.org/2000/svg" xmlns:xlink="http://www.w3.org/1999/xlink"><g id="tight-bounds" transform="matrix(1,0,0,1,0.04749999999998522,0.04750000000001364)"><svg viewBox="0 0 333.90454557049503 333.90454557049503" height="333.90454557049503" width="333.90454557049503"><g><svg></svg></g><g><svg viewBox="0 0 333.90454557049503 333.90454557049503" height="333.90454557049503" width="333.90454557049503"><g><path d="M0 166.952c0-92.205 74.747-166.952 166.952-166.952 92.205 0 166.952 74.747 166.953 166.952 0 92.205-74.747 166.952-166.953 166.953-92.205 0-166.952-74.747-166.952-166.953zM166.952 316.63c82.665 0 149.677-67.013 149.678-149.678 0-82.665-67.013-149.677-149.678-149.677-82.665 0-149.677 67.013-149.677 149.677 0 82.665 67.013 149.677 149.677 149.678z" data-fill-palette-color="tertiary" fill="#ffffff" stroke="transparent"></path><ellipse rx="160.27418187383762" ry="160.27418187383762" cx="166.95227278524752" cy="166.95227278524752" fill="#ffffff" stroke="transparent" stroke-width="0" fill-opacity="1" data-fill-palette-color="tertiary"></ellipse></g><g transform="matrix(1,0,0,1,66.90403548146374,71.17305217166896)"><svg viewBox="0 0 200.09647460756756 191.55844122715712" height="191.55844122715712" width="200.09647460756756"><g><svg viewBox="0 0 200.09647460756756 191.55844122715712" height="191.55844122715712" width="200.09647460756756"><g><svg viewBox="0 0 200.09647460756756 191.55844122715712" height="191.55844122715712" width="200.09647460756756"><g><svg viewBox="0 0 200.09647460756756 191.55844122715712" height="191.55844122715712" width="200.09647460756756"><g id="textblocktransform"><svg viewBox="0 0 200.09647460756756 191.55844122715712" height="191.55844122715712" width="200.09647460756756" id="textblock"><g><svg viewBox="0 0 200.09647460756756 191.55844122715712" height="191.55844122715712" width="200.09647460756756"><g transform="matrix(1,0,0,1,0,0)"><svg width="200.09647460756756" viewBox="1.55 -43.35 45.7 43.75000000000001" height="191.55844122715712" data-palette-color="#755bb4"><path d="M10.75 0.4Q6.1 0.4 3.83-2.88 1.55-6.15 1.55-12.8L1.55-12.8 1.55-31.3Q1.55-37.25 4.2-40.3 6.85-43.35 12.1-43.35L12.1-43.35Q16.35-43.35 18.7-41.65 21.05-39.95 21.95-36.7 22.85-33.45 22.85-28.35L22.85-28.35 14.45-28.35 14.45-32.2Q14.45-33.75 14.03-34.6 13.6-35.45 12.5-35.45L12.5-35.45Q10.05-35.45 10.05-32.25L10.05-32.25 10.05-11.45Q10.05-9.5 10.55-8.5 11.05-7.5 12.3-7.5L12.3-7.5Q13.55-7.5 14.05-8.5 14.55-9.5 14.55-11.45L14.55-11.45 14.55-17.6 12.25-17.6 12.25-25 22.75-25 22.75 0 19.3 0 17.85-3.6Q15.55 0.4 10.75 0.4L10.75 0.4ZM26.15 0L26.15-42.95 37.8-42.95Q42.5-42.95 44.62-40.65 46.75-38.35 46.75-33.15L46.75-33.15 46.75-31.25Q46.75-25.1 42.35-23.9L42.35-23.9Q45.05-23.2 46.15-20.65 47.25-18.1 47.25-13.9L47.25-13.9Q47.25-7.05 45.2-3.53 43.15 0 37.8 0L37.8 0 26.15 0ZM34.55-26.8L36.3-26.8Q37.4-26.8 37.8-27.63 38.2-28.45 38.2-29.95L38.2-29.95 38.2-34.25Q38.2-36.35 36.35-36.35L36.35-36.35 34.55-36.35 34.55-26.8ZM35.4-7.55Q38.75-7.55 38.75-10.75L38.75-10.75 38.75-16.1Q38.75-18.05 38.17-19.05 37.6-20.05 36.15-20.05L36.15-20.05 34.55-20.05 34.55-7.6 35.4-7.55Z" opacity="1" transform="matrix(1,0,0,1,0,0)" fill="#755bb4" class="wordmark-text-0" data-fill-palette-color="quaternary" id="text-0"></path></svg></g></svg></g></svg></g></svg></g><g></g></svg></g></svg></g></svg></g></svg></g><defs></defs></svg><rect width="333.90454557049503" height="333.90454557049503" fill="none" stroke="none" visibility="hidden"></rect></g></svg></g></svg>